<?xml version="1.0" encoding="UTF-8"?>
<svg width="12" height="13" viewBox="0 0 12 13" version="1.1" xmlns="http://www.w3.org/2000/svg" xmlns:xlink="http://www.w3.org/1999/xlink">
    <!-- Generator: Sketch 55.2 (78181) - https://sketchapp.com -->
    <title>※</title>
    <desc>Created with Sketch.</desc>
    <g id="页面1" stroke="none" stroke-width="1" fill="none" fill-rule="evenodd">
        <g id="应用注册备份" transform="translate(-997.000000, -550.000000)" fill="#FF0000" fill-rule="nonzero">
            <path d="M1003,550.336 C1003.272,550.336 1003.512,550.416 1003.704,550.608 C1003.88,550.784 1003.976,551.008 1003.976,551.296 C1003.976,551.568 1003.88,551.792 1003.704,551.968 C1003.512,552.144 1003.272,552.24 1003,552.24 C1002.728,552.24 1002.504,552.144 1002.312,551.968 C1002.12,551.776 1002.04,551.552 1002.04,551.296 C1002.04,551.008 1002.12,550.784 1002.312,550.608 C1002.504,550.416 1002.728,550.336 1003,550.336 Z M999.032,551.472 L1003,555.44 L1006.968,551.472 L1007.768,552.272 L1003.8,556.24 L1007.768,560.208 L1006.968,561.024 L1003,557.056 L999.032,561.024 L998.232,560.208 L1002.2,556.24 L998.232,552.272 L999.032,551.472 Z M998.072,555.264 C998.36,555.264 998.584,555.344 998.776,555.536 C998.952,555.712 999.048,555.936 999.048,556.224 C999.048,556.496 998.952,556.72 998.776,556.896 C998.584,557.072 998.344,557.168 998.072,557.168 C997.8,557.168 997.576,557.072 997.4,556.896 C997.208,556.704 997.112,556.48 997.112,556.224 C997.112,555.936 997.208,555.712 997.4,555.536 C997.576,555.344 997.8,555.264 998.072,555.264 Z M1007.912,555.264 C1008.2,555.264 1008.424,555.344 1008.616,555.536 C1008.792,555.712 1008.888,555.936 1008.888,556.224 C1008.888,556.496 1008.792,556.72 1008.616,556.896 C1008.424,557.072 1008.184,557.168 1007.912,557.168 C1007.64,557.168 1007.416,557.072 1007.224,556.896 C1007.032,556.704 1006.952,556.48 1006.952,556.224 C1006.952,555.936 1007.032,555.712 1007.224,555.536 C1007.416,555.344 1007.64,555.264 1007.912,555.264 Z M1003,560.176 C1003.272,560.176 1003.512,560.256 1003.704,560.448 C1003.88,560.624 1003.976,560.848 1003.976,561.136 C1003.976,561.408 1003.88,561.632 1003.704,561.824 C1003.512,561.984 1003.272,562.08 1003,562.08 C1002.728,562.08 1002.504,561.984 1002.312,561.808 C1002.12,561.616 1002.04,561.392 1002.04,561.136 C1002.04,560.848 1002.12,560.624 1002.312,560.448 C1002.504,560.256 1002.728,560.176 1003,560.176 Z" id="※"></path>
        </g>
    </g>
</svg>