<?xml version="1.0" encoding="UTF-8"?>
<svg width="36px" height="30px" viewBox="0 0 36 30" version="1.1" xmlns="http://www.w3.org/2000/svg" xmlns:xlink="http://www.w3.org/1999/xlink">
    <!-- Generator: Sketch 55.2 (78181) - https://sketchapp.com -->
    <title>编组 3</title>
    <desc>Created with Sketch.</desc>
    <g id="页面1" stroke="none" stroke-width="1" fill="none" fill-rule="evenodd">
        <g id="资源一键申请-PAAS" transform="translate(-1740.000000, -1180.000000)" stroke="#5875CA" stroke-width="2.5">
            <g id="编组-3" transform="translate(1742.000000, 1182.000000)">
                <path d="M2.19557705e-12,1.93622895e-13 L3.68646293,1.93622895e-13 C4.15421249,1.93425949e-13 4.55947084,0.324243504 4.66209701,0.780595915 L8.93970551,19.8020312 C9.04233168,20.2583836 9.44759002,20.5826271 9.91533959,20.5826271 L28.1910063,20.5826271 C28.6701847,20.5826271 29.0820143,20.2427155 29.1728674,19.7722289 L31.9655506,5.31019625 C32.0702648,4.76792936 31.7155582,4.24344757 31.1732913,4.13873341 C31.1097123,4.12645602 31.0450911,4.12038307 30.9803379,4.1206001 L5.43224872,4.20622881" id="Stroke-1" stroke-linecap="round"></path>
                <path d="M14.1492555,9.5608822 L14.1492555,15.70495" id="Stroke-3" stroke-linecap="round"></path>
                <path d="M23.9522631,9.5608822 L23.9522631,15.70495" id="Stroke-4" stroke-linecap="round"></path>
                <path d="M27.2783333,25.7434814 C27.2783333,26.1771004 26.9268527,26.5284814 26.4933333,26.5284814 C26.0597143,26.5284814 25.7083333,26.1771004 25.7083333,25.7434814 C25.7083333,25.309962 26.0597143,24.9584814 26.4933333,24.9584814 C26.9268527,24.9584814 27.2783333,25.309962 27.2783333,25.7434814 Z" id="Stroke-5" fill="#5875CA"></path>
                <path d="M12.57,25.7434814 C12.57,26.1771004 12.2185194,26.5284814 11.785,26.5284814 C11.351381,26.5284814 11,26.1771004 11,25.7434814 C11,25.309962 11.351381,24.9584814 11.785,24.9584814 C12.2185194,24.9584814 12.57,25.309962 12.57,25.7434814 Z" id="Stroke-7" fill="#5875CA"></path>
            </g>
        </g>
    </g>
</svg>