<?xml version="1.0" encoding="UTF-8"?>
<svg width="18px" height="19px" viewBox="0 0 18 19" version="1.1" xmlns="http://www.w3.org/2000/svg" xmlns:xlink="http://www.w3.org/1999/xlink">
    <!-- Generator: Sketch 55.2 (78181) - https://sketchapp.com -->
    <title>编组 7</title>
    <desc>Created with Sketch.</desc>
    <g id="页面1" stroke="none" stroke-width="1" fill="none" fill-rule="evenodd">
        <g id="资源一键申请-SAAS" transform="translate(-604.000000, -612.000000)" stroke="#F66F6A" stroke-width="1.5">
            <g id="编组-7" transform="translate(605.000000, 613.000000)">
                <path d="M8.16926719,14.4508947 C8.02208298,14.5994211 7.78229351,14.5994211 7.6351093,14.4508947 C3.9729514,10.7596579 2.13203035,7.88710526 2.13203035,5.77015789 C2.13203035,2.58355263 4.71513561,-4.88498131e-14 7.90174088,-4.88498131e-14 C11.0883461,-4.88498131e-14 13.6718988,2.58355263 13.6718988,5.77015789 C13.6718988,7.88710526 11.8309777,10.7596579 8.16926719,14.4508947 Z" id="Stroke-1"></path>
                <path d="M7.94383825,8.44591316 C6.53552246,8.44591316 5.39339088,7.30378158 5.39339088,5.89546579 C5.39339088,4.48670263 6.53552246,3.34501842 7.94383825,3.34501842 C9.35215404,3.34501842 10.4942856,4.48670263 10.4942856,5.89546579 C10.4942856,7.30378158 9.35215404,8.44591316 7.94383825,8.44591316 Z" id="Stroke-3"></path>
                <path d="M13.6149935,12.4525895 L15.8357304,16.0199053 C15.9914146,16.2699842 15.8115725,16.5947737 15.5163093,16.5947737 L0.376467194,16.5947737 C0.0843356148,16.5947737 -0.0959538589,16.2762474 0.0539145621,16.0252737 L2.18517772,12.4584053" id="Stroke-5"></path>
            </g>
        </g>
    </g>
</svg>