<?xml version="1.0" encoding="UTF-8"?>
<svg width="18px" height="18px" viewBox="0 0 18 18" version="1.1" xmlns="http://www.w3.org/2000/svg" xmlns:xlink="http://www.w3.org/1999/xlink">
    <!-- Generator: Sketch 55.2 (78181) - https://sketchapp.com -->
    <title>编组 10</title>
    <desc>Created with Sketch.</desc>
    <g id="页面1" stroke="none" stroke-width="1" fill="none" fill-rule="evenodd" stroke-linecap="round">
        <g id="资源一键申请-PAAS-申请信息填写" transform="translate(-1410.000000, -653.000000)" stroke="#5E7CE0" stroke-width="1.5">
            <g id="编组-4" transform="translate(1411.000000, 651.000000)">
                <g id="编组-10" transform="translate(0.000000, 3.000000)">
                    <path d="M3.41643871,9.1580129 L12.0675355,9.1580129" id="Stroke-1"></path>
                    <path d="M3.41643871,12.1882581 L12.0675355,12.1882581" id="Stroke-2"></path>
                    <path d="M3.41643871,6.12802581 L8.47708387,6.12802581" id="Stroke-3"></path>
                    <path d="M15.483871,7.6076129 L15.483871,14.7389677 C15.4838876,15.2912525 15.0361724,15.7389677 14.4838876,15.7389677 C14.4838821,15.7389677 14.4838765,15.7389677 14.483871,15.7389511 L1,15.7387263 C0.447721759,15.7387005 1.66668058e-05,15.2909879 2.32702746e-13,14.7387097 L2.32702746e-13,1.25483871 C-3.04418634e-05,0.70255396 0.447684808,0.25483871 0.999969558,0.25483871 C0.999979706,0.25483871 0.999989853,0.25483871 1,0.254869152 L8.47716129,0.255096774" id="Stroke-4"></path>
                    <path d="M13.0105806,-9.76996262e-15 L13.0105806,5.42270968" id="Stroke-6"></path>
                    <path d="M15.7217548,2.7112 L10.2993032,2.7112" id="Stroke-8"></path>
                </g>
            </g>
        </g>
    </g>
</svg>