<?xml version="1.0" encoding="UTF-8"?>
<svg width="17px" height="18px" viewBox="0 0 17 18" version="1.1" xmlns="http://www.w3.org/2000/svg" xmlns:xlink="http://www.w3.org/1999/xlink">
    <!-- Generator: Sketch 55.2 (78181) - https://sketchapp.com -->
    <title>编组 15</title>
    <desc>Created with Sketch.</desc>
    <g id="页面1" stroke="none" stroke-width="1" fill="none" fill-rule="evenodd">
        <g id="daas文档" transform="translate(-829.000000, -539.000000)" stroke="#F66F6A" stroke-width="1.5">
            <g id="编组-15" transform="translate(830.000000, 540.000000)">
                <g id="编组-9">
                    <polyline id="Stroke-1" points="14.5346415 6.07545264 14.5346415 3.63320755 7.25886792 -6.57252031e-14 7.48734408e-13 3.63320755 7.48734408e-13 12.1086792 7.26732075 15.7370566 9.0125283 14.858566"></polyline>
                    <g id="编组-10" transform="translate(10.500000, 9.500000) rotate(-4.000000) translate(-10.500000, -9.500000) translate(6.000000, 5.000000)">
                        <path d="M7.78203774,3.89101887 C7.78203774,6.03984906 6.03984906,7.78203774 3.89101887,7.78203774 C1.74218868,7.78203774 -7.51843032e-13,6.03984906 -7.51843032e-13,3.89101887 C-7.51843032e-13,1.74218868 1.74218868,-6.92779167e-14 3.89101887,-6.92779167e-14 C6.03984906,-6.92779167e-14 7.78203774,1.74218868 7.78203774,3.89101887 Z" id="Stroke-3"></path>
                        <path d="M6.6530717,6.63097358 L8.41095849,8.26689811" id="Stroke-5"></path>
                    </g>
                </g>
            </g>
        </g>
    </g>
</svg>