<?xml version="1.0" encoding="UTF-8"?>
<svg width="13px" height="15px" viewBox="0 0 13 15" version="1.1" xmlns="http://www.w3.org/2000/svg" xmlns:xlink="http://www.w3.org/1999/xlink">
    <!-- Generator: Sketch 55.2 (78181) - https://sketchapp.com -->
    <title>形状</title>
    <desc>Created with Sketch.</desc>
    <g id="页面1" stroke="none" stroke-width="1" fill="none" fill-rule="evenodd">
        <g id="应用二级页面-查看评论" transform="translate(-543.000000, -882.000000)" fill="#C0C4CC" fill-rule="nonzero">
            <path d="M546.945648,890.408867 C545.679185,889.590421 544.843038,888.180874 544.843038,886.579288 C544.843038,884.05021 546.928024,882 549.5,882 C552.071976,882 554.156962,884.05021 554.156962,886.579288 C554.156962,888.180874 553.320815,889.590421 552.054352,890.408867 C554.374391,891.38479 556,893.649725 556,896.288026 C556,896.68123 555.675823,897 555.275949,897 C554.876076,897 554.551899,896.68123 554.551899,896.288026 C554.551899,893.544482 552.29008,891.320388 549.5,891.320388 C546.70992,891.320388 544.448101,893.544482 544.448101,896.288026 C544.448101,896.68123 544.123924,897 543.724051,897 C543.324177,897 543,896.68123 543,896.288026 C543,893.649725 544.625609,891.38479 546.945648,890.408867 Z M549.5,889.734628 C551.272213,889.734628 552.708861,888.321942 552.708861,886.579288 C552.708861,884.836634 551.272213,883.423948 549.5,883.423948 C547.727787,883.423948 546.291139,884.836634 546.291139,886.579288 C546.291139,888.321942 547.727787,889.734628 549.5,889.734628 Z" id="形状"></path>
        </g>
    </g>
</svg>