<?xml version="1.0" encoding="UTF-8"?>
<svg width="14px" height="14px" viewBox="0 0 14 14" version="1.1" xmlns="http://www.w3.org/2000/svg" xmlns:xlink="http://www.w3.org/1999/xlink">
    <!-- Generator: Sketch 55.2 (78181) - https://sketchapp.com -->
    <title>编组 7</title>
    <desc>Created with Sketch.</desc>
    <g id="页面1" stroke="none" stroke-width="1" fill="none" fill-rule="evenodd">
        <g id="应用二级页面-用户评价备份" transform="translate(-1558.000000, -902.000000)">
            <g id="编组-7" transform="translate(1558.000000, 902.000000)">
                <g id="编组-5" transform="translate(2.800000, 6.533333)" fill="#C0C4CC" fill-rule="nonzero">
                    <path d="M9.70334924e-13,0.933333333 C9.70334924e-13,1.4487991 0.417867567,1.86666667 0.933333333,1.86666667 C1.4487991,1.86666667 1.86666667,1.4487991 1.86666667,0.933333333 C1.86666667,0.417867567 1.4487991,6.03961325e-14 0.933333333,6.03961325e-14 C0.417867567,6.03961325e-14 9.70334924e-13,0.417867567 9.70334924e-13,0.933333333 Z" id="路径"></path>
                    <path d="M3.26666667,0.933333333 C3.26666667,1.4487991 3.68453423,1.86666667 4.2,1.86666667 C4.71546577,1.86666667 5.13333333,1.4487991 5.13333333,0.933333333 C5.13333333,0.417867567 4.71546577,6.03961325e-14 4.2,6.03961325e-14 C3.68453423,6.03961325e-14 3.26666667,0.417867567 3.26666667,0.933333333 Z" id="路径"></path>
                    <path d="M6.53333333,0.933333333 C6.53333333,1.4487991 6.9512009,1.86666667 7.46666667,1.86666667 C7.98213243,1.86666667 8.4,1.4487991 8.4,0.933333333 C8.4,0.417867567 7.98213243,6.03961325e-14 7.46666667,6.03961325e-14 C6.9512009,6.03961325e-14 6.53333333,0.417867567 6.53333333,0.933333333 Z" id="路径"></path>
                </g>
                <rect id="矩形" stroke="#C0C4CC" stroke-width="1.5" x="0.75" y="0.75" width="12.5" height="12.5" rx="2"></rect>
            </g>
        </g>
    </g>
</svg>