<?xml version="1.0" encoding="UTF-8"?>
<svg width="76px" height="76px" viewBox="0 0 76 76" version="1.1" xmlns="http://www.w3.org/2000/svg" xmlns:xlink="http://www.w3.org/1999/xlink">
    <!-- Generator: Sketch 55.2 (78181) - https://sketchapp.com -->
    <title>编组 5</title>
    <desc>Created with Sketch.</desc>
    <g id="页面1" stroke="none" stroke-width="1" fill="none" fill-rule="evenodd">
        <g id="登录-忘记密码" transform="translate(-798.000000, -514.000000)" fill-rule="nonzero">
            <g id="编组-5" transform="translate(798.000000, 514.000000)">
                <path d="M33.9994937,0.189138863 C16.5471083,1.91066253 2.33575479,15.840951 0.271683048,33.2582032 C-0.984326568,43.8684103 2.19522225,53.6969051 8.14150553,61.2329628 L5.99838423,72.2911174 C5.77001885,73.4592942 6.8942792,74.4342387 8.01853956,74.0477742 L18.6287467,70.3939281 C25.5411912,74.4781551 33.8326113,76.4807439 42.6773783,75.3652668 C60.0594974,73.1694458 73.8843865,58.887826 75.5005107,41.4442239 C77.705115,17.6327409 57.8285433,-2.15599797 33.9994937,0.189138863 Z" id="路径" fill="#F66F6A"></path>
                <g id="编组-4" transform="translate(16.000000, 15.000000)" fill="#FFFFFF">
                    <path d="M3.3090583,45.7086393 C2.37270394,45.7086393 1.6181659,44.9541013 1.6181659,44.0177468 C1.6181659,40.3450559 5.9544867,37.6905366 13.581684,36.6269108 L13.581684,36.1178249 C8.40900786,32.1542277 8.40900786,24.8088457 8.40900786,20.3361627 C8.40900786,12.9544174 12.7544195,8.54537011 20.0270749,8.54537011 L20.4179801,8.54537011 C27.6906355,8.54537011 32.0360471,12.9544175 32.0360471,20.3361627 C32.0360471,20.8816118 32.0269563,21.427061 32.0178655,21.9906918 C31.990593,22.9270461 31.2269642,23.6634025 30.281519,23.6361301 C29.3451646,23.6088576 28.6088083,22.8361379 28.6360807,21.8997836 C28.6542623,21.3725161 28.6542623,20.8543394 28.6542623,20.3361627 C28.6542623,14.7543996 25.8815625,11.9271549 20.4179801,11.9271549 L20.0270749,11.9271549 C14.5634925,11.9271549 11.7907926,14.7543996 11.7907926,20.3361627 C11.7907926,25.7361093 12.1271529,31.236055 16.1816583,33.8178476 C16.6725625,34.1269355 16.9634688,34.6632938 16.9634688,35.2451062 L16.9634688,38.126896 C16.9634688,38.9905239 16.3089298,39.7177894 15.4543929,39.8086975 C8.66355084,40.5268723 4.99995071,42.5177617 4.99995071,44.0177468 C4.99995071,44.9450105 4.23632191,45.7086393 3.3090583,45.7086393 Z" id="路径"></path>
                    <path d="M37.2996316,45.7086393 C36.3632772,45.7086393 35.6087392,44.9541013 35.6087392,44.0177468 C35.6087392,42.5086709 31.945139,40.5268723 25.154297,39.8086975 C24.2906692,39.7177894 23.6361302,38.9905238 23.6361302,38.126896 L23.6361302,35.2360155 C23.6361302,34.2996611 24.3906682,33.5451231 25.3270226,33.5451231 C26.263377,33.5451231 27.017915,34.2996611 27.017915,35.2360155 L27.017915,36.6269108 C34.6451124,37.6814459 38.9815144,40.3450559 38.9815144,44.0177469 C38.9905239,44.9450105 38.2359859,45.7086393 37.2996316,45.7086393 Z" id="路径"></path>
                    <path d="M25.5906563,30.5360619 C23.2634066,30.5360619 21.5270601,30.2997006 21.481606,30.2906098 C20.6452506,30.0360669 20.1452556,29.1906207 20.327072,28.3269928 C20.4997975,27.4724559 21.2997896,26.9088251 22.1725083,26.9906424 C26.3906484,27.4542742 32.8269484,27.0542782 33.95421,24.7088468 C34.3542061,23.8724914 35.363287,23.5088586 36.2087332,23.9179455 C37.0541793,24.3179415 37.4087213,25.3361133 36.9996345,26.1724686 C35.2360156,29.8451596 29.5633444,30.5360619 25.5906563,30.5360619 Z" id="路径"></path>
                    <path d="M40.5905081,28.7633522 C39.6541538,28.7633522 38.8996157,28.0088142 38.8996157,27.0724597 L38.8996157,21.1634272 L36.6360017,20.3543443 C35.9632811,20.117983 35.5087401,19.4725348 35.5087401,18.7634509 C35.5087401,10.2817166 28.6815348,3.37269395 20.2907087,3.37269395 C11.8998825,3.37269395 5.07267722,10.2817166 5.07267722,18.7634509 C5.07267722,19.3089001 4.80904347,19.817986 4.3635933,20.1361647 L3.38178481,20.8361578 L3.38178481,27.0724598 C3.38178481,28.0088142 2.62724682,28.7633522 1.69089241,28.7633522 C0.754537989,28.7633522 -1.51345603e-12,28.0088142 -1.51345603e-12,27.0724598 L-1.51345603e-12,19.97253 C-1.51345603e-12,19.4270808 0.263633748,18.9179949 0.709083922,18.5998163 L1.70907403,17.8816415 C2.17270594,7.94537605 10.3271708,-2.52242671e-13 20.2907087,-2.52242671e-13 C30.1451568,-2.52242671e-13 38.2359859,7.77265049 38.8541617,17.5634628 L41.1541389,18.3816366 C41.8268595,18.6179979 42.2814005,19.2634461 42.2814005,19.9725299 L42.2814005,27.0724597 C42.2814005,28.0088142 41.5268625,28.7633522 40.5905081,28.7633522 Z" id="路径"></path>
                </g>
            </g>
        </g>
    </g>
</svg>