<?xml version="1.0" encoding="UTF-8"?>
<svg width="19px" height="15px" viewBox="0 0 19 15" version="1.1" xmlns="http://www.w3.org/2000/svg" xmlns:xlink="http://www.w3.org/1999/xlink">
    <!-- Generator: Sketch 55.2 (78181) - https://sketchapp.com -->
    <title>编组 2</title>
    <desc>Created with Sketch.</desc>
    <g id="页面1" stroke="none" stroke-width="1" fill="none" fill-rule="evenodd">
        <g id="新闻资讯" transform="translate(-470.000000, -466.000000)" fill-rule="nonzero" stroke="#C0C4CC" stroke-width="1.5">
            <g id="编组-2" transform="translate(471.000000, 467.000000)">
                <path d="M8.55184912,4.47028688 C7.37314993,4.47028688 6.41388683,5.42936475 6.41388683,6.60824917 C6.41388683,7.78713359 7.37314993,8.74621144 8.55184912,8.74621144 C9.73054831,8.74621144 10.6898114,7.78713357 10.6898114,6.60824917 C10.6898114,5.42936478 9.73052516,4.47028688 8.55184912,4.47028688 L8.55184912,4.47028688 Z" id="路径"></path>
                <path d="M8.55184912,3.19744231e-14 C3.21224525,3.19744231e-14 2.48689958e-13,5.11694962 2.48689958e-13,6.45280562 L2.48689958e-13,6.76390108 C2.48689958e-13,8.09954871 3.21226842,13.2165215 8.55184912,13.2165215 C13.9563485,13.2165215 17.0923074,8.14036593 17.1036982,6.75746478 L17.1036982,6.45662572 C17.0885104,5.07006651 13.9529451,3.19744231e-14 8.55184912,3.19744231e-14 Z" id="路径"></path>
            </g>
        </g>
    </g>
</svg>