<?xml version="1.0" encoding="UTF-8"?>
<svg width="20px" height="15px" viewBox="0 0 20 15" version="1.1" xmlns="http://www.w3.org/2000/svg" xmlns:xlink="http://www.w3.org/1999/xlink">
    <!-- Generator: Sketch 55.2 (78181) - https://sketchapp.com -->
    <title>编组 2</title>
    <desc>Created with Sketch.</desc>
    <g id="页面1" stroke="none" stroke-width="1" fill="none" fill-rule="evenodd">
        <g id="新闻资讯详情" transform="translate(-596.000000, -370.000000)" fill-rule="nonzero" stroke="#C0C4CC" stroke-width="1.5">
            <g id="编组-3" transform="translate(290.000000, 208.000000)">
                <g id="编组-2" transform="translate(307.000000, 163.000000)">
                    <path d="M8.79618767,4.47028688 C7.58381136,4.47028688 6.59714074,5.42936475 6.59714074,6.60824917 C6.59714074,7.78713359 7.58381136,8.74621144 8.79618767,8.74621144 C10.008564,8.74621144 10.9952346,7.78713357 10.9952346,6.60824917 C10.9952346,5.42936478 10.0085402,4.47028688 8.79618767,4.47028688 L8.79618767,4.47028688 Z" id="路径"></path>
                    <path d="M8.79618767,3.19744231e-14 C3.30402369,3.19744231e-14 2.48689958e-13,5.11694962 2.48689958e-13,6.45280562 L2.48689958e-13,6.76390108 C2.48689958e-13,8.09954871 3.30404752,13.2165215 8.79618767,13.2165215 C14.3551013,13.2165215 17.580659,8.14036593 17.5923753,6.75746478 L17.5923753,6.45662572 C17.5767536,5.07006651 14.3516007,3.19744231e-14 8.79618767,3.19744231e-14 Z" id="路径"></path>
                </g>
            </g>
        </g>
    </g>
</svg>