<?xml version="1.0" encoding="UTF-8"?>
<svg width="22px" height="22px" viewBox="0 0 22 22" version="1.1" xmlns="http://www.w3.org/2000/svg" xmlns:xlink="http://www.w3.org/1999/xlink">
    <!-- Generator: Sketch 55.2 (78181) - https://sketchapp.com -->
    <title>编组 3</title>
    <desc>Created with Sketch.</desc>
    <g id="页面1" stroke="none" stroke-width="1" fill="none" fill-rule="evenodd">
        <g id="saas文档" transform="translate(-1355.000000, -382.000000)">
            <g id="编组-3" transform="translate(1356.000000, 383.000000)">
                <path d="M8.89233333,15.4060667 L10.7966667,15.4060667 L10.7966667,13.6044 L8.89233333,13.6044 L8.89233333,15.4060667 Z M10.6423333,12.1637333 L10.6423333,12.5750667 L9.047,12.5750667 L9.047,12.1120667 C9.012,11.0824 9.51,10.2077333 10.5393333,9.48706667 C11.4656667,8.86906667 11.8776667,8.2004 11.7746667,7.47973333 C11.6716667,6.6564 11.1736667,6.21106667 10.2823333,6.14173333 C9.047,6.07306667 8.30866667,6.69073333 8.069,7.9944 L6.47366667,7.47973333 C6.91933333,5.49006667 8.22333333,4.5294 10.3853333,4.5974 C12.3063333,4.7004 13.353,5.67806667 13.525,7.53106667 C13.559,8.6634 12.9076667,9.69273333 11.569,10.6187333 C10.882,11.0657333 10.573,11.5804 10.6423333,12.1637333 L10.6423333,12.1637333 Z" id="Fill-1" fill="#FFFFFF"></path>
                <path d="M20,10 C20,15.5226667 15.5226667,20 10,20 C4.47733333,20 0,15.5226667 0,10 C0,4.47733333 4.47733333,0 10,0 C15.5226667,0 20,4.47733333 20,10 Z" id="Stroke-3" stroke="#FFFFFF" stroke-width="2"></path>
            </g>
        </g>
    </g>
</svg>