<?xml version="1.0" encoding="UTF-8"?>
<svg width="12px" height="13px" viewBox="0 0 12 13" version="1.1" xmlns="http://www.w3.org/2000/svg" xmlns:xlink="http://www.w3.org/1999/xlink">
    <!-- Generator: Sketch 55.2 (78181) - https://sketchapp.com -->
    <title>※</title>
    <desc>Created with Sketch.</desc>
    <g id="页面1" stroke="none" stroke-width="1" fill="none" fill-rule="evenodd">
        <g id="应用注册" transform="translate(-259.000000, -352.000000)" fill="#FF0000" fill-rule="nonzero">
            <path d="M265,352.336 C265.272,352.336 265.512,352.416 265.704,352.608 C265.88,352.784 265.976,353.008 265.976,353.296 C265.976,353.568 265.88,353.792 265.704,353.968 C265.512,354.144 265.272,354.24 265,354.24 C264.728,354.24 264.504,354.144 264.312,353.968 C264.12,353.776 264.04,353.552 264.04,353.296 C264.04,353.008 264.12,352.784 264.312,352.608 C264.504,352.416 264.728,352.336 265,352.336 Z M261.032,353.472 L265,357.44 L268.968,353.472 L269.768,354.272 L265.8,358.24 L269.768,362.208 L268.968,363.024 L265,359.056 L261.032,363.024 L260.232,362.208 L264.2,358.24 L260.232,354.272 L261.032,353.472 Z M260.072,357.264 C260.36,357.264 260.584,357.344 260.776,357.536 C260.952,357.712 261.048,357.936 261.048,358.224 C261.048,358.496 260.952,358.72 260.776,358.896 C260.584,359.072 260.344,359.168 260.072,359.168 C259.8,359.168 259.576,359.072 259.4,358.896 C259.208,358.704 259.112,358.48 259.112,358.224 C259.112,357.936 259.208,357.712 259.4,357.536 C259.576,357.344 259.8,357.264 260.072,357.264 Z M269.912,357.264 C270.2,357.264 270.424,357.344 270.616,357.536 C270.792,357.712 270.888,357.936 270.888,358.224 C270.888,358.496 270.792,358.72 270.616,358.896 C270.424,359.072 270.184,359.168 269.912,359.168 C269.64,359.168 269.416,359.072 269.224,358.896 C269.032,358.704 268.952,358.48 268.952,358.224 C268.952,357.936 269.032,357.712 269.224,357.536 C269.416,357.344 269.64,357.264 269.912,357.264 Z M265,362.176 C265.272,362.176 265.512,362.256 265.704,362.448 C265.88,362.624 265.976,362.848 265.976,363.136 C265.976,363.408 265.88,363.632 265.704,363.824 C265.512,363.984 265.272,364.08 265,364.08 C264.728,364.08 264.504,363.984 264.312,363.808 C264.12,363.616 264.04,363.392 264.04,363.136 C264.04,362.848 264.12,362.624 264.312,362.448 C264.504,362.256 264.728,362.176 265,362.176 Z" id="※"></path>
        </g>
    </g>
</svg>