<?xml version="1.0" encoding="UTF-8"?>
<svg width="32px" height="27px" viewBox="0 0 32 27" version="1.1" xmlns="http://www.w3.org/2000/svg" xmlns:xlink="http://www.w3.org/1999/xlink">
    <!-- Generator: Sketch 55.2 (78181) - https://sketchapp.com -->
    <title>编组 4</title>
    <desc>Created with Sketch.</desc>
    <g id="页面1" stroke="none" stroke-width="1" fill="none" fill-rule="evenodd">
        <g id="购物车" transform="translate(-287.000000, -185.000000)" stroke="#F66F6A" stroke-width="2.2">
            <g id="编组-4" transform="translate(289.000000, 187.000000)">
                <path d="M-9.69890834e-13,2.48689958e-13 L3.22233668,2.48689958e-13 C3.69008624,2.48826078e-13 4.09534459,0.324243504 4.19797075,0.780595915 L7.99674875,17.6727939 C8.09937491,18.1291463 8.50463326,18.4533898 8.97238282,18.4533898 L25.1893122,18.4533898 C25.6684906,18.4533898 26.0803202,18.1134782 26.1711733,17.6429916 L28.6349244,4.8843488 C28.7396385,4.3420819 28.384932,3.81760012 27.8426651,3.71288595 C27.7790861,3.70060856 27.7144648,3.69453561 27.6497116,3.69475264 L4.87029195,3.77110169" id="Stroke-1" stroke-linecap="round"></path>
                <path d="M12.6855394,8.57182542 L12.6855394,14.0803" id="Stroke-3" stroke-linecap="round"></path>
                <path d="M21.4744428,8.57182542 L21.4744428,14.0803" id="Stroke-4" stroke-linecap="round"></path>
                <path d="M23.9758581,23.111739 C23.9758581,23.5178326 23.6466888,23.8469085 23.2406886,23.8469085 C22.8345949,23.8469085 22.5055191,23.5178326 22.5055191,23.111739 C22.5055191,22.7057387 22.8345949,22.3765695 23.2406886,22.3765695 C23.6466888,22.3765695 23.9758581,22.7057387 23.9758581,23.111739 Z" id="Stroke-5" fill="#F66F6A"></path>
                <path d="M9.89252474,23.111739 C9.89252474,23.5178326 9.56335551,23.8469085 9.15735524,23.8469085 C8.75126161,23.8469085 8.42218574,23.5178326 8.42218574,23.111739 C8.42218574,22.7057387 8.75126161,22.3765695 9.15735524,22.3765695 C9.56335551,22.3765695 9.89252474,22.7057387 9.89252474,23.111739 Z" id="Stroke-7" fill="#F66F6A"></path>
            </g>
        </g>
    </g>
</svg>