<?xml version="1.0" encoding="UTF-8"?>
<svg width="22px" height="22px" viewBox="0 0 22 22" version="1.1" xmlns="http://www.w3.org/2000/svg" xmlns:xlink="http://www.w3.org/1999/xlink">
    <!-- Generator: Sketch 55.2 (78181) - https://sketchapp.com -->
    <title>形状</title>
    <desc>Created with Sketch.</desc>
    <g id="页面1" stroke="none" stroke-width="1" fill="none" fill-rule="evenodd">
        <g id="saas文档" transform="translate(-907.000000, -381.000000)" fill="#FFFFFF" fill-rule="nonzero" stroke="#FFFFFF" stroke-width="0.5">
            <path d="M928.669379,394.397333 C928.645461,394.227663 928.555176,394.074424 928.418354,393.971275 L923.239786,390.069274 L926.160335,386.049322 C926.261885,385.910237 926.302875,385.736789 926.275754,385.567127 C925.943365,383.500211 924.184248,382 922.093382,382 C921.867585,382 921.639255,382.018294 921.414712,382.054242 C921.253428,382.080184 921.108016,382.166415 921.007894,382.295494 L918.021483,386.13717 L912.940229,382.308131 C912.803984,382.205018 912.634323,382.161165 912.461514,382.1845 C912.292014,382.208664 912.138959,382.298907 912.035763,382.435525 L908.129952,387.619181 C907.915514,387.903954 907.972265,388.308879 908.257369,388.523648 L913.244834,392.281831 L911.320813,394.756843 C911.260692,394.834117 911.218956,394.924065 911.198768,395.019867 L909.912403,401.118711 C909.861959,401.35787 909.950812,401.605019 910.141987,401.757314 C910.256365,401.848346 910.39822,401.897961 910.544403,401.897961 C910.636487,401.897961 910.729211,401.878413 910.815923,401.838038 L916.501322,399.205055 C916.601366,399.159076 916.687834,399.088031 916.752347,398.998806 L918.664961,396.366202 L923.734523,400.186791 C923.846207,400.271226 923.982424,400.31685 924.122433,400.316718 C924.3186,400.316718 924.511596,400.228089 924.639014,400.059705 L928.545748,394.876049 C928.648739,394.739151 928.693202,394.566982 928.669379,394.397333 L928.669379,394.397333 Z M921.862544,383.300564 C923.306287,383.19208 924.604343,384.141015 924.948707,385.519795 L923.703663,387.233497 C923.402182,386.63638 922.960291,386.115965 922.40246,385.713123 C921.851563,385.314611 921.226757,385.059965 920.573552,384.958722 L921.862544,383.300564 Z M909.550361,387.880619 L912.679099,383.728516 L913.523785,384.365084 L912.871456,385.230904 C912.656995,385.515677 912.71377,385.920602 912.99885,386.135371 C913.110539,386.219796 913.246752,386.265419 913.386759,386.265297 C913.582927,386.265297 913.776562,386.176692 913.903317,386.007953 L914.555362,385.142488 L915.510734,385.862455 L914.901761,386.670199 C914.687324,386.954972 914.744075,387.359897 915.029179,387.574666 C915.140765,387.659324 915.277022,387.705078 915.417088,387.704923 C915.613256,387.704923 915.806252,387.616294 915.933646,387.447911 L916.542643,386.640119 L917.228625,387.157079 L914.037716,391.261874 L909.550361,387.880619 Z M912.294929,396.081287 C912.309925,396.080043 912.324875,396.07829 912.339752,396.076033 C913.684477,395.858424 914.9636,396.779623 915.181186,398.129696 C915.194004,398.209319 915.221685,398.285821 915.262786,398.35521 L911.44222,400.124692 L912.294929,396.081287 L912.294929,396.081287 Z M916.328371,397.38488 C915.855998,395.892811 914.49854,394.850821 912.954737,394.759423 L919.593685,386.219196 C920.321249,386.137572 921.04673,386.327255 921.646213,386.76013 C922.231,387.182544 922.632966,387.790831 922.792309,388.487889 L921.858308,389.773473 C921.847137,389.786134 916.328371,397.38488 916.328371,397.38488 L916.328371,397.38488 Z M923.996293,398.766406 L919.424355,395.320993 L922.480439,391.114482 L923.151654,391.620224 L922.464275,392.532595 C922.249838,392.817368 922.306589,393.222293 922.591693,393.437062 C922.703377,393.521496 922.839593,393.567121 922.979602,393.566989 C923.175769,393.566989 923.369381,393.478359 923.49616,393.309645 L924.183349,392.397557 L925.093141,393.083066 L924.445402,393.942591 C924.230965,394.227672 924.287716,394.632621 924.57282,394.847366 C924.684504,394.9318 924.820721,394.977424 924.960729,394.977292 C925.156873,394.977292 925.350532,394.888663 925.477287,394.720279 L926.12512,393.860636 L927.125386,394.614327 L923.996293,398.766406 L923.996293,398.766406 Z" id="形状"></path>
        </g>
    </g>
</svg>