<?xml version="1.0" encoding="UTF-8"?>
<svg width="25px" height="21px" viewBox="0 0 25 21" version="1.1" xmlns="http://www.w3.org/2000/svg" xmlns:xlink="http://www.w3.org/1999/xlink">
    <!-- Generator: Sketch 55.2 (78181) - https://sketchapp.com -->
    <title>编组 5</title>
    <desc>Created with Sketch.</desc>
    <g id="页面1" stroke="none" stroke-width="1" fill="none" fill-rule="evenodd">
        <g id="资源一键申请-上云应用" transform="translate(-1540.000000, -800.000000)" stroke="#5E7CE0" stroke-width="1.8">
            <g id="编组-5" transform="translate(1541.000000, 801.000000)">
                <path d="M2.12274642e-12,-2.93098879e-14 L2.35711366,-2.93098879e-14 C2.82486322,-2.93958121e-14 3.23012157,0.324243504 3.33274773,0.780595915 L6.23889108,13.703475 C6.34151724,14.1598274 6.74677559,14.4840709 7.21452515,14.4840709 L19.5935616,14.4840709 C20.07274,14.4840709 20.4845696,14.1441593 20.5754227,13.6736727 L22.4259791,4.09048502 C22.5306933,3.54821812 22.1759867,3.02373634 21.6337198,2.91902217 C21.5701408,2.90674478 21.5055196,2.90067183 21.4407664,2.90088886 L3.82269354,2.95993879" id="Stroke-1" stroke-linecap="round"></path>
                <path d="M9.9568835,6.72802822 L9.9568835,11.0516315" id="Stroke-3" stroke-linecap="round"></path>
                <path d="M16.8552963,6.72802822 L16.8552963,11.0516315" id="Stroke-4" stroke-linecap="round"></path>
                <path d="M19.1958642,18.1157832 C19.1958642,18.4209225 18.948526,18.6681906 18.6434568,18.6681906 C18.3383175,18.6681906 18.0910494,18.4209225 18.0910494,18.1157832 C18.0910494,17.810714 18.3383175,17.5633758 18.6434568,17.5633758 C18.948526,17.5633758 19.1958642,17.810714 19.1958642,18.1157832 Z" id="Stroke-5" fill="#5E7CE0"></path>
                <path d="M8.84555556,18.1157832 C8.84555556,18.4209225 8.59821733,18.6681906 8.29314815,18.6681906 C7.98800882,18.6681906 7.74074074,18.4209225 7.74074074,18.1157832 C7.74074074,17.810714 7.98800882,17.5633758 8.29314815,17.5633758 C8.59821733,17.5633758 8.84555556,17.810714 8.84555556,18.1157832 Z" id="Stroke-7" fill="#5E7CE0"></path>
            </g>
        </g>
    </g>
</svg>