<?xml version="1.0" encoding="UTF-8"?>
<svg width="21px" height="21px" viewBox="0 0 21 21" version="1.1" xmlns="http://www.w3.org/2000/svg" xmlns:xlink="http://www.w3.org/1999/xlink">
    <!-- Generator: Sketch 55.2 (78181) - https://sketchapp.com -->
    <title>编组 2</title>
    <desc>Created with Sketch.</desc>
    <g id="页面1" stroke="none" stroke-width="1" fill="none" fill-rule="evenodd">
        <g id="资源一键申请-上云应用" transform="translate(-1479.000000, -799.000000)" stroke="#0B2444" stroke-width="1.8">
            <g id="编组-2" transform="translate(1480.000188, 800.000000)">
                <path d="M4.582875,14.3706875 L14.44975,14.3706875" id="Stroke-1" stroke-linecap="round"></path>
                <path d="M4.582875,10.24475 L14.44975,10.24475" id="Stroke-2" stroke-linecap="round"></path>
                <path d="M4.582875,6.118125 L9.516625,6.118125" id="Stroke-3" stroke-linecap="round"></path>
                <path d="M12.1225,1.10775 C11.87875,0.864625 11.399375,0.665875 11.055,0.665875 L0.625,0.665875 C0.28125,0.665875 0,0.947125 0,1.290875 L0,18.478375 C0,18.822125 0.28125,19.103375 0.625,19.103375 L17.8125,19.103375 C18.155625,19.103375 18.4375,18.822125 18.4375,18.478375 L18.4375,8.04775 C18.4375,7.704 18.238125,7.224 17.995,6.980875 L12.1225,1.10775 Z" id="Stroke-4"></path>
                <path d="M15.697375,-4.15223411e-14 L19.033,3.574375" id="Stroke-6" stroke-linecap="round"></path>
            </g>
        </g>
    </g>
</svg>