<?xml version="1.0" encoding="UTF-8"?>
<svg width="48px" height="48px" viewBox="0 0 48 48" version="1.1" xmlns="http://www.w3.org/2000/svg" xmlns:xlink="http://www.w3.org/1999/xlink">
    <!-- Generator: Sketch 55.2 (78181) - https://sketchapp.com -->
    <title>编组 14</title>
    <desc>Created with Sketch.</desc>
    <g id="页面1" stroke="none" stroke-width="1" fill="none" fill-rule="evenodd">
        <g id="画板备份-7" transform="translate(-581.000000, -301.000000)">
            <g id="编组-14" transform="translate(582.000000, 302.000000)">
                <circle id="椭圆形备份-4" stroke="#FFFFFF" stroke-width="1.5" cx="23" cy="23" r="23"></circle>
                <path d="M9,11 L9,35 L21.9467475,35 L21.9467475,33.1539143 L10.8463072,33.1539143 L10.8463072,27.6154357 L21.9467475,27.6154357 L21.9467475,25.7693501 L10.8463072,25.7693501 L10.8463072,20.2306499 L33.0237047,20.2306499 L33.0237047,18.3843427 L10.8463072,18.3843427 L10.8463072,12.8460857 L33.0237047,12.8460857 L33.0237047,22.0769572 L34.8697904,22.0769572 L34.8697904,11 L9,11 Z M16.3845643,16.5384786 L18.2306499,16.5384786 L18.2306499,14.6921714 L16.3845643,14.6921714 L16.3845643,16.5384786 Z M12.6923929,16.5384786 L14.538257,16.5384786 L14.538257,14.6921714 L12.6923929,14.6921714 L12.6923929,16.5384786 Z M16.3845643,23.9230428 L18.2306499,23.9230428 L18.2306499,22.0769572 L16.3845643,22.0769572 L16.3845643,23.9230428 Z M12.6923929,23.9230428 L14.538257,23.9230428 L14.538257,22.0769572 L12.6923929,22.0769572 L12.6923929,23.9230428 Z M27.4852261,23.9230428 L27.4852261,29.4615214 L31.177619,29.4615214 L31.177619,35 L33.0237047,35 L33.0237047,29.4615214 L36.7160976,29.4615214 L36.7160976,23.9230428 L27.4852261,23.9230428 Z M29.3313118,27.6154357 L34.8697904,27.6154357 L34.8697904,25.7693501 L29.3313118,25.7693501 L29.3313118,27.6154357 Z M16.3845643,31.3076071 L18.2306499,31.3076071 L18.2306499,29.4615214 L16.3845643,29.4615214 L16.3845643,31.3076071 Z M12.6923929,31.3076071 L14.538257,31.3076071 L14.538257,29.4615214 L12.6923929,29.4615214 L12.6923929,31.3076071 Z M27.4852261,35 L29.3313118,35 L29.3313118,33.1539143 L27.4852261,33.1539143 L27.4852261,35 Z M23.7928332,35 L25.6391404,35 L25.6391404,33.1539143 L23.7928332,33.1539143 L23.7928332,35 Z" id="Fill-1" fill="#FFFFFF"></path>
            </g>
        </g>
    </g>
</svg>