<?xml version="1.0" encoding="UTF-8"?>
<svg width="34px" height="34px" viewBox="0 0 34 34" version="1.1" xmlns="http://www.w3.org/2000/svg" xmlns:xlink="http://www.w3.org/1999/xlink">
    <!-- Generator: Sketch 55.2 (78181) - https://sketchapp.com -->
    <title>编组 2</title>
    <desc>Created with Sketch.</desc>
    <g id="页面1" stroke="none" stroke-width="1" fill="none" fill-rule="evenodd">
        <g id="资源总览-资源服务" transform="translate(-37.000000, -225.000000)" stroke="#FFFFFF" stroke-width="2.5">
            <g id="编组-2" transform="translate(39.000000, 227.000000)">
                <path d="M2,12.1956818 L10.1963636,12.1956818 C11.3009331,12.1956818 12.1963636,11.3002513 12.1963636,10.1956818 L12.1963636,2 C12.1963636,0.8954305 11.3009331,-4.55092185e-15 10.1963636,-5.32907052e-15 L2,-5.32907052e-15 C0.8954305,-5.12616439e-15 -5.46434127e-15,0.8954305 -5.32907052e-15,2 L-5.32907052e-15,10.1956818 C-5.19379977e-15,11.3002513 0.8954305,12.1956818 2,12.1956818 Z" id="Stroke-1"></path>
                <path d="M20.3320455,12.1956818 L28.5277273,12.1956818 C29.6322968,12.1956818 30.5277273,11.3002513 30.5277273,10.1956818 L30.5277273,2 C30.5277273,0.8954305 29.6322968,-5.53197664e-15 28.5277273,-5.32907052e-15 L20.3320455,-5.32907052e-15 C19.227476,-5.12616439e-15 18.3320455,0.8954305 18.3320455,2 L18.3320455,10.1956818 C18.3320455,11.3002513 19.227476,12.1956818 20.3320455,12.1956818 Z" id="Stroke-3"></path>
                <path d="M2,29.8459091 L10.1963636,29.8459091 C11.3009331,29.8459091 12.1963636,28.9504786 12.1963636,27.8459091 L12.1963636,19.6495455 C12.1963636,18.544976 11.3009331,17.6495455 10.1963636,17.6495455 L2,17.6495455 C0.8954305,17.6495455 -5.46434127e-15,18.544976 -5.32907052e-15,19.6495455 L-5.32907052e-15,27.8459091 C-5.19379977e-15,28.9504786 0.8954305,29.8459091 2,29.8459091 Z" id="Stroke-4"></path>
                <path d="M30.5279318,17.6498864 L30.5279318,29.84625" id="Stroke-5" stroke-linecap="round"></path>
                <path d="M18.3324545,29.8460455 L18.3324545,25.1496818" id="Stroke-6" stroke-linecap="round"></path>
                <path d="M24.4301591,29.8460455 L24.4301591,21.0587727" id="Stroke-7" stroke-linecap="round"></path>
            </g>
        </g>
    </g>
</svg>