<?xml version="1.0" encoding="UTF-8"?>
<svg width="42px" height="42px" viewBox="0 0 42 42" version="1.1" xmlns="http://www.w3.org/2000/svg" xmlns:xlink="http://www.w3.org/1999/xlink">
    <!-- Generator: Sketch 55.2 (78181) - https://sketchapp.com -->
    <title>编组 15</title>
    <desc>Created with Sketch.</desc>
    <g id="页面1" stroke="none" stroke-width="1" fill="none" fill-rule="evenodd" opacity="0.65">
        <g id="已申请资源" transform="translate(-49.000000, -624.000000)" stroke="#FFFFFF" stroke-width="2">
            <g id="编组-15" transform="translate(50.000000, 625.000000)">
                <path d="M39.2755484,30.7634194 C39.2755484,35.7130968 35.2632903,39.726 30.3129677,39.726 C25.3639355,39.726 21.3516774,35.7130968 21.3516774,30.7634194 C21.3516774,25.8137419 25.3639355,21.8008387 30.3129677,21.8008387 C35.2632903,21.8008387 39.2755484,25.8137419 39.2755484,30.7634194 Z" id="Stroke-1"></path>
                <polyline id="Stroke-3" points="34.7336129 30.7634194 30.3129677 30.7634194 30.3129677 26.3427742"></polyline>
                <path d="M5.83116129,16.4514194 L27.4589032,16.4514194" id="Stroke-5"></path>
                <path d="M5.83116129,8.87645161 L27.4589032,8.87645161" id="Stroke-7"></path>
                <path d="M5.83116129,24.0263871 L18.4827742,24.0263871" id="Stroke-9"></path>
                <polyline id="Stroke-11" points="36 23.836129 36 1.77635684e-14 0 1.77635684e-14 0 38.7096774 26.8584 38.7096774"></polyline>
            </g>
        </g>
    </g>
</svg>