<?xml version="1.0" encoding="UTF-8"?>
<svg width="48px" height="48px" viewBox="0 0 48 48" version="1.1" xmlns="http://www.w3.org/2000/svg" xmlns:xlink="http://www.w3.org/1999/xlink">
    <!-- Generator: Sketch 55.2 (78181) - https://sketchapp.com -->
    <title>编组 15</title>
    <desc>Created with Sketch.</desc>
    <g id="页面1" stroke="none" stroke-width="1" fill="none" fill-rule="evenodd">
        <g id="画板备份-7" transform="translate(-395.000000, -203.000000)" stroke="#FFFFFF">
            <g id="编组-15" transform="translate(396.000000, 204.000000)">
                <circle id="椭圆形备份-4" stroke-width="1.5" cx="23" cy="23" r="23"></circle>
                <g id="编组-10" transform="translate(11.444222, 9.999911)" stroke-width="2">
                    <path d="M23.6320889,17.2174222 C23.6320889,20.7912 20.7347556,23.6885333 17.1609778,23.6885333 C13.5876444,23.6885333 10.6907556,20.7912 10.6907556,17.2174222 C10.6907556,13.6440889 13.5876444,10.7467556 17.1609778,10.7467556 C20.7347556,10.7467556 23.6320889,13.6440889 23.6320889,17.2174222 Z" id="Stroke-1"></path>
                    <path d="M10.6906667,17.2174222 C10.6906667,16.8276444 10.7311111,16.4480889 10.7968889,16.0774222 L5.06261699e-13,16.0774222 L5.06261699e-13,23.6885333 L16.5555556,23.6885333 L16.5555556,23.6574222 C13.2662222,23.3520889 10.6906667,20.5867556 10.6906667,17.2174222 Z" id="Stroke-3"></path>
                    <path d="M8.13684444,8.684 L4.54173333,16.0773333" id="Stroke-5"></path>
                    <path d="M12.1034222,8.69831111 L13.5398667,11.8543111" id="Stroke-7"></path>
                    <path d="M14.7084889,4.57244444 C14.7084889,7.09777778 12.6618222,9.14488889 10.1360444,9.14488889 C7.61071111,9.14488889 5.5636,7.09777778 5.5636,4.57244444 C5.5636,2.04711111 7.61071111,5.41788836e-14 10.1360444,5.41788836e-14 C12.6618222,5.41788836e-14 14.7084889,2.04711111 14.7084889,4.57244444 Z" id="Stroke-9"></path>
                    <polyline id="Stroke-11" points="17.1611556 13.3450222 17.1611556 17.2174667 20.3780444 17.2174667"></polyline>
                </g>
            </g>
        </g>
    </g>
</svg>