<?xml version="1.0" encoding="UTF-8"?>
<svg width="20px" height="20px" viewBox="0 0 20 20" version="1.1" xmlns="http://www.w3.org/2000/svg" xmlns:xlink="http://www.w3.org/1999/xlink">
    <!-- Generator: Sketch 55.2 (78181) - https://sketchapp.com -->
    <title>形状 3</title>
    <desc>Created with Sketch.</desc>
    <g id="页面1" stroke="none" stroke-width="1" fill="none" fill-rule="evenodd">
        <g id="资源总览-发布服务?" transform="translate(-372.000000, -115.000000)" fill="#F66F6A" fill-rule="nonzero" stroke="#F66F6A" stroke-width="0.5">
            <g id="形状-3" transform="translate(373.000000, 116.000000)">
                <path d="M17.4373311,6.81732485 L0.562696002,6.81732485 C0.250392678,6.81571662 -0.00150176002,6.56129017 6.74014015e-06,6.24898638 L6.74014015e-06,0.567973564 C-0.00129967393,0.255811991 0.25053581,0.00160840843 0.562696002,0 L17.4371486,0 C17.7492374,0.00170872124 18.0009621,0.255882852 17.9996546,0.567973564 L17.9996546,6.24898638 C18.0010631,6.5611482 17.749309,6.81543372 17.4371486,6.81714239 L17.4373311,6.81732485 Z M1.12501354,5.68101282 L16.8746486,5.68101282 L16.8746486,1.13631203 L1.12501354,1.13631203 L1.12501354,5.68101282 Z M6.75074335,17.9998175 L0.562513541,17.9998175 C0.250424743,17.9981088 -0.00129991081,17.7439347 8.42433106e-06,17.431844 L8.42433106e-06,9.65774002 C-0.00129991081,9.34564931 0.250424743,9.09147518 0.562513541,9.08976646 L6.75074335,9.08976646 C7.06283215,9.09147518 7.3145568,9.34564931 7.31325016,9.65774002 L7.31325016,17.4314791 C7.31475884,17.743712 7.06297527,17.9981089 6.75074335,17.9998175 Z M1.12501354,16.8635055 L6.18751354,16.8635055 L6.18751354,10.225896 L1.12501354,10.225896 L1.12501354,16.863688 L1.12501354,16.8635055 Z M17.4373311,10.2257136 L10.1250135,10.2257136 C9.81524848,10.2201615 9.56703926,9.96746362 9.56703926,9.6576488 C9.56703926,9.34783398 9.81524848,9.09513611 10.1250135,9.08958401 L17.4373311,9.08958401 C17.7470962,9.09513611 17.9953054,9.34783398 17.9953054,9.6576488 C17.9953054,9.96746362 17.7470962,10.2201615 17.4373311,10.2257136 Z M17.4373311,14.1119445 L10.1250135,14.1119445 C9.81126866,14.1118894 9.55695745,13.8575334 9.55695745,13.5437885 C9.55695745,13.2300436 9.81126866,12.9756877 10.1250135,12.9756325 L17.4373311,12.9756325 C17.751076,12.9756877 18.0053872,13.2300436 18.0053872,13.5437885 C18.0053872,13.8575334 17.751076,14.1118894 17.4373311,14.1119445 L17.4373311,14.1119445 Z M17.4373311,18 L10.1250135,18 C9.81126866,17.9999448 9.55695745,17.7455889 9.55695745,17.431844 C9.55695745,17.1180991 9.81126866,16.8637432 10.1250135,16.863688 L17.4373311,16.863688 C17.751076,16.8637432 18.0053872,17.1180991 18.0053872,17.431844 C18.0053872,17.7455889 17.751076,17.9999448 17.4373311,18 Z" id="形状"></path>
            </g>
        </g>
    </g>
</svg>