<?xml version="1.0" encoding="UTF-8"?>
<svg width="32px" height="32px" viewBox="0 0 32 32" version="1.1" xmlns="http://www.w3.org/2000/svg" xmlns:xlink="http://www.w3.org/1999/xlink">
    <!-- Generator: Sketch 55.2 (78181) - https://sketchapp.com -->
    <title>编组 5</title>
    <desc>Created with Sketch.</desc>
    <g id="页面1" stroke="none" stroke-width="1" fill="none" fill-rule="evenodd" opacity="0.65">
        <g id="资源总览-资源服务" transform="translate(-39.000000, -446.000000)" stroke="#FFFFFF" stroke-width="2">
            <g id="编组-5" transform="translate(40.000000, 447.000000)">
                <path d="M29.5401111,21.5217778 C29.5401111,25.989 25.9184444,29.6106667 21.4512222,29.6106667 C16.9845556,29.6106667 13.3634444,25.989 13.3634444,21.5217778 C13.3634444,17.0551111 16.9845556,13.4334444 21.4512222,13.4334444 C25.9184444,13.4334444 29.5401111,17.0551111 29.5401111,21.5217778 Z" id="Stroke-1"></path>
                <path d="M13.3633333,21.5217778 C13.3633333,21.0345556 13.4138889,20.5601111 13.4961111,20.0967778 L2,20.0967778 C0.8954305,20.0967778 6.97015661e-15,20.9922083 7.10542736e-15,22.0967778 L7.10542736e-15,27.6106667 C7.7312255e-15,28.7152362 0.8954305,29.6106667 2,29.6106667 L20.6944444,29.6106667 L20.6944444,29.5717778 C16.5827778,29.1901111 13.3633333,25.7334444 13.3633333,21.5217778 Z" id="Stroke-3"></path>
                <path d="M10.1710556,10.855 L5.67716667,20.0966667" id="Stroke-5"></path>
                <path d="M15.1292778,10.8728889 L16.9248333,14.8178889" id="Stroke-7"></path>
                <path d="M18.3856111,5.71555556 C18.3856111,8.87222222 15.8272778,11.4311111 12.6700556,11.4311111 C9.51338889,11.4311111 6.9545,8.87222222 6.9545,5.71555556 C6.9545,2.55888889 9.51338889,1.42108547e-14 12.6700556,1.42108547e-14 C15.8272778,1.42108547e-14 18.3856111,2.55888889 18.3856111,5.71555556 Z" id="Stroke-9"></path>
                <polyline id="Stroke-11" stroke-linecap="round" points="21.4514444 18.1994245 21.4514444 21.5218333 24.4482428 21.5218333"></polyline>
            </g>
        </g>
    </g>
</svg>