<?xml version="1.0" encoding="UTF-8"?>
<svg width="18px" height="18px" viewBox="0 0 18 18" version="1.1" xmlns="http://www.w3.org/2000/svg" xmlns:xlink="http://www.w3.org/1999/xlink">
    <!-- Generator: Sketch 55.2 (78181) - https://sketchapp.com -->
    <title>路径</title>
    <desc>Created with Sketch.</desc>
    <g id="页面1" stroke="none" stroke-width="1" fill="none" fill-rule="evenodd">
        <g id="资源总览-发布服务?" transform="translate(-934.000000, -116.000000)" fill="#F66F6A" fill-rule="nonzero">
            <path d="M951.97153,116.748562 C951.97153,116.343654 951.640242,116.012366 951.235334,116.012366 C951.097297,116.012366 950.977665,116.049176 950.867235,116.113593 L934.413248,124.800709 C934.173984,124.920341 934.017542,125.187212 934.017542,125.463286 C934.017542,125.73936 934.173984,125.987826 934.42245,126.11666 L938.692389,128.454084 C938.802818,128.500096 938.92245,128.527703 939.023677,128.527703 C939.308953,128.527703 939.557419,128.371262 939.686254,128.122795 C939.8611,127.7639 939.713861,127.312979 939.354965,127.12893 L936.37337,125.444881 L948.318156,119.113593 L940.808953,128.242427 C940.698524,128.389666 940.634107,128.555311 940.634107,128.720955 L940.634107,133.23936 C940.634107,133.635065 940.974597,133.975556 941.370303,133.975556 C941.766008,133.975556 942.106499,133.635065 942.106499,133.23936 L942.106499,128.997028 L950.103432,119.260832 L948.557419,131.647335 L944.066622,129.503163 C943.974597,129.447949 943.864168,129.429544 943.744536,129.429544 C943.45926,129.429544 943.210794,129.585985 943.081959,129.843654 C942.999137,130.018501 942.980732,130.220955 943.04515,130.405004 C943.109567,130.598255 943.238401,130.745495 943.413248,130.828317 L948.833493,133.386599 C948.925518,133.441814 949.035947,133.460219 949.155579,133.460219 C949.266008,133.460219 949.38564,133.432611 949.49607,133.377396 C949.707726,133.266967 949.854965,133.064513 949.882573,132.834452 L951.97153,116.840587 L951.97153,116.812979 L951.97153,116.748562 Z" id="路径"></path>
        </g>
    </g>
</svg>