<?xml version="1.0" encoding="UTF-8"?>
<svg width="21px" height="20px" viewBox="0 0 21 20" version="1.1" xmlns="http://www.w3.org/2000/svg" xmlns:xlink="http://www.w3.org/1999/xlink">
    <!-- Generator: Sketch 55.2 (78181) - https://sketchapp.com -->
    <title>形状</title>
    <desc>Created with Sketch.</desc>
    <g id="页面1" stroke="none" stroke-width="1" fill="none" fill-rule="evenodd">
        <g id="资源总览-发布服务?" transform="translate(-1510.000000, -115.000000)" fill="#F66F6A" fill-rule="nonzero">
            <path d="M1528.29554,120.633086 C1527.92255,120.633086 1527.61737,120.31776 1527.61737,119.927677 L1527.61737,118.75324 C1527.61737,117.461018 1526.70667,116.405782 1525.58425,116.405782 L1513.38815,116.405782 C1512.26706,116.405782 1511.35499,117.458912 1511.35499,118.75324 L1511.35499,130.963864 C1511.35499,132.258269 1512.26776,133.311322 1513.38815,133.311322 L1516.09805,133.311322 C1516.47108,133.311322 1516.77626,133.626649 1516.77626,134.016731 C1516.77626,134.404665 1516.47246,134.720661 1516.09805,134.720661 L1513.38815,134.720661 C1511.52174,134.720661 1510,133.036286 1510,130.966012 L1510,118.754649 C1510,116.684452 1511.51966,115 1513.38815,115 L1525.58356,115 C1527.45196,115 1528.97163,116.68441 1528.97163,118.754649 L1528.97163,119.929086 C1528.97163,120.31776 1528.66856,120.633086 1528.29554,120.633086 Z M1512.71132,125.562904 C1512.71132,125.17497 1513.01512,124.858939 1513.38742,124.858939 L1517.45166,124.858939 C1517.82673,124.858939 1518.12983,125.174231 1518.12983,125.562904 C1518.12983,125.950874 1517.82604,126.268313 1517.45166,126.268313 L1513.38742,126.268313 C1513.01512,126.266123 1512.71132,125.950874 1512.71132,125.562904 Z M1512.71132,121.337044 C1512.71132,120.949075 1513.01512,120.633079 1513.38742,120.633079 L1518.80934,120.633079 C1519.18237,120.633079 1519.48547,120.94837 1519.48547,121.337044 C1519.48547,121.727126 1519.18164,122.040974 1518.80934,122.040974 L1513.38815,122.040974 C1513.01512,122.040305 1512.71132,121.725014 1512.71132,121.337044 Z M1522.54073,128.563552 C1521.51517,127.794655 1520.84046,126.551139 1520.84046,125.140356 C1520.84046,122.811279 1522.6653,120.914503 1524.9047,120.914503 C1527.14406,120.914503 1528.96895,122.811279 1528.96895,125.140356 C1528.96895,126.551836 1528.2942,127.795394 1527.26861,128.563552 C1529.43048,129.683656 1531,132.166576 1531,134.296035 C1531,134.686082 1530.6962,135 1530.3218,135 C1529.9488,135 1529.6457,134.684709 1529.6457,134.296035 C1529.6457,132.349223 1527.52124,129.366287 1524.9026,129.366287 C1522.284,129.366287 1520.15951,132.348554 1520.15951,134.296035 C1520.15951,134.686082 1519.85571,135 1519.48134,135 C1519.10834,135 1518.80524,134.684709 1518.80524,134.296035 C1518.80934,132.166569 1520.37886,129.683649 1522.54073,128.563552 Z M1527.61664,125.140356 C1527.61664,123.587852 1526.40291,122.323834 1524.90677,122.323834 C1523.41059,122.323834 1522.19748,123.587183 1522.19748,125.140356 C1522.19748,126.694974 1523.41132,127.956913 1524.90746,127.956913 C1526.40291,127.956913 1527.61664,126.695009 1527.61664,125.140356 Z" id="形状"></path>
        </g>
    </g>
</svg>