<?xml version="1.0" encoding="UTF-8"?>
<svg width="48px" height="48px" viewBox="0 0 48 48" version="1.1" xmlns="http://www.w3.org/2000/svg" xmlns:xlink="http://www.w3.org/1999/xlink">
    <!-- Generator: Sketch 55.2 (78181) - https://sketchapp.com -->
    <title>编组 16</title>
    <desc>Created with Sketch.</desc>
    <g id="页面1" stroke="none" stroke-width="1" fill="none" fill-rule="evenodd">
        <g id="画板备份-7" transform="translate(-581.000000, -203.000000)" stroke="#FFFFFF">
            <g id="编组-16" transform="translate(582.000000, 204.000000)">
                <circle id="椭圆形备份-4" stroke-width="1.5" cx="23" cy="23" r="23"></circle>
                <g id="编组-2" transform="translate(10.000000, 11.000000)" stroke-width="2">
                    <path d="M3.3367082,23.6067148 L20.2700852,23.6067148" id="Stroke-1"></path>
                    <path d="M11.8034361,19.7741115 L11.8034361,23.6066361" id="Stroke-3"></path>
                    <path d="M20.2144131,4.72493115 C20.2144131,5.64834098 19.4656918,6.3970623 18.542282,6.3970623 C17.6184787,6.3970623 16.8701508,5.64834098 16.8701508,4.72493115 C16.8701508,3.80112787 17.6184787,3.0528 18.542282,3.0528 C19.4656918,3.0528 20.2144131,3.80112787 20.2144131,4.72493115 Z" id="Stroke-5"></path>
                    <path d="M6.73668197,13.7018754 C6.73668197,14.6256787 5.9883541,15.3740066 5.06455082,15.3740066 C4.14114098,15.3740066 3.39241967,14.6256787 3.39241967,13.7018754 C3.39241967,12.7780721 4.14114098,12.0297443 5.06455082,12.0297443 C5.9883541,12.0297443 6.73668197,12.7780721 6.73668197,13.7018754 Z" id="Stroke-7"></path>
                    <path d="M13.4755672,9.21340328 C13.4755672,10.1368131 12.7268459,10.8855344 11.8034361,10.8855344 C10.8796328,10.8855344 10.1313049,10.1368131 10.1313049,9.21340328 C10.1313049,8.2896 10.8796328,7.54127213 11.8034361,7.54127213 C12.7268459,7.54127213 13.4755672,8.2896 13.4755672,9.21340328 Z" id="Stroke-9"></path>
                    <polyline id="Stroke-11" points="9.96491803 9.21340328 5.06459016 9.21340328 5.06459016 12.0296656"></polyline>
                    <polyline id="Stroke-13" points="13.5766033 9.21340328 18.4769311 9.21340328 18.4769311 6.39714098"></polyline>
                    <path d="M26.9236721,17.3677377 C26.9236721,20.8312131 24.1160656,23.6384262 20.6529836,23.6384262 C17.1899016,23.6384262 14.3822951,20.8312131 14.3822951,17.3677377 C14.3822951,13.9042623 17.1899016,11.0970492 20.6529836,11.0970492 C24.1160656,11.0970492 26.9236721,13.9042623 26.9236721,17.3677377 Z" id="Stroke-15"></path>
                    <path d="M14.3822951,17.3677377 C14.3822951,13.9042623 17.1899016,11.0970492 20.6529836,11.0970492 C21.7211803,11.0970492 22.7264262,11.3657705 23.6065574,11.8367213 L23.6065574,-8.70414851e-14 L-3.99680289e-13,-8.70414851e-14 L-3.99680289e-13,19.7740328 L14.8626885,19.7740328 C14.5542295,19.0327869 14.3822951,18.2207213 14.3822951,17.3677377 Z" id="Stroke-17"></path>
                    <polyline id="Stroke-19" points="20.6531803 13.6676852 20.6531803 17.3676197 23.7963934 17.3676197"></polyline>
                </g>
            </g>
        </g>
    </g>
</svg>