<?xml version="1.0" encoding="UTF-8"?>
<svg width="66px" height="66px" viewBox="0 0 66 66" version="1.1" xmlns="http://www.w3.org/2000/svg" xmlns:xlink="http://www.w3.org/1999/xlink">
    <!-- Generator: Sketch 55.2 (78181) - https://sketchapp.com -->
    <title>编组 18</title>
    <desc>Created with Sketch.</desc>
    <defs>
        <polygon id="path-1" points="0.0005 0.5892 29.8785 0.5892 29.8785 9.4132 0.0005 9.4132"></polygon>
        <polygon id="path-3" points="0.0005 -10 29.8785 -10 29.8785 -1.177 0.0005 -1.177"></polygon>
        <polygon id="path-5" points="0.0005 11.176 29.8785 11.176 29.8785 19.9995 0.0005 19.9995"></polygon>
    </defs>
    <g id="页面1" stroke="none" stroke-width="1" fill="none" fill-rule="evenodd">
        <g id="资源申请单" transform="translate(-752.000000, -790.000000)">
            <g id="编组-18" transform="translate(752.000000, 790.000000)">
                <circle id="椭圆形" fill="#FB7E64" cx="33" cy="33" r="33"></circle>
                <g id="编组-17" transform="translate(18.000000, 28.000000)">
                    <mask id="mask-2" fill="white">
                        <use xlink:href="#path-1"></use>
                    </mask>
                    <g id="Clip-2"></g>
                    <path d="M18.227,5.0012 C18.227,3.9292 19.1,3.0562 20.172,3.0562 C21.245,3.0562 22.117,3.9292 22.117,5.0012 C22.117,6.0732 21.245,6.9462 20.172,6.9462 C19.1,6.9462 18.227,6.0732 18.227,5.0012 M1.232,6.2332 L15.938,6.2332 C16.483,8.1122 18.206,9.4132 20.172,9.4132 C22.139,9.4132 23.861,8.1122 24.407,6.2332 L28.647,6.2332 C29.326,6.2332 29.879,5.6802 29.879,5.0012 C29.879,4.3222 29.326,3.7692 28.647,3.7692 L24.41,3.7692 C23.865,1.8902 22.143,0.5892 20.176,0.5892 C18.209,0.5892 16.487,1.8902 15.941,3.7692 L1.232,3.7692 C0.553,3.7692 0,4.3222 0,5.0012 C0,5.6802 0.553,6.2332 1.232,6.2332" id="Fill-1" fill="#FFFFFF" mask="url(#mask-2)"></path>
                    <mask id="mask-4" fill="white">
                        <use xlink:href="#path-3"></use>
                    </mask>
                    <g id="Clip-4"></g>
                    <path d="M11.3891,-4.616 C11.0421,-4.016 10.3961,-3.643 9.7031,-3.643 C8.6311,-3.643 7.7591,-4.516 7.7591,-5.589 C7.7591,-6.661 8.6311,-7.533 9.7031,-7.533 C10.3961,-7.533 11.0421,-7.16 11.3891,-6.561 C11.7361,-5.961 11.7361,-5.216 11.3891,-4.616 M5.4691,-4.357 C6.0121,-2.477 7.7331,-1.177 9.7011,-1.177 C11.6671,-1.177 13.3891,-2.477 13.9351,-4.357 L28.6471,-4.357 C29.0831,-4.357 29.4921,-4.593 29.7121,-4.972 C29.9341,-5.352 29.9341,-5.825 29.7131,-6.204 C29.4951,-6.584 29.0871,-6.821 28.6471,-6.821 L13.9381,-6.821 C13.3921,-8.7 11.6701,-10 9.7031,-10 C7.7381,-10 6.0151,-8.7 5.4691,-6.821 L1.2321,-6.821 C0.5531,-6.821 0.0001,-6.268 0.0001,-5.589 C0.0001,-4.909 0.5531,-4.357 1.2321,-4.357 L5.4691,-4.357 Z" id="Fill-3" fill="#FFFFFF" mask="url(#mask-4)"></path>
                    <mask id="mask-6" fill="white">
                        <use xlink:href="#path-5"></use>
                    </mask>
                    <g id="Clip-6"></g>
                    <path d="M9.7035,17.532 C8.6315,17.532 7.7585,16.66 7.7585,15.587 C7.7585,14.514 8.6315,13.642 9.7035,13.642 C10.7765,13.642 11.6495,14.514 11.6495,15.587 C11.6495,16.66 10.7765,17.532 9.7035,17.532 M28.6465,14.355 L13.9385,14.355 C13.3925,12.476 11.6695,11.176 9.7035,11.176 C7.7375,11.176 6.0155,12.476 5.4695,14.355 L1.2325,14.355 C0.5535,14.355 0.0005,14.908 0.0005,15.587 C0.0005,16.266 0.5535,16.819 1.2325,16.819 L5.4685,16.819 C6.0115,18.698 7.7325,20 9.7005,20 C11.6665,20 13.3895,18.698 13.9345,16.819 L28.6465,16.819 C29.3265,16.819 29.8785,16.266 29.8785,15.587 C29.8785,14.908 29.3265,14.355 28.6465,14.355" id="Fill-5" fill="#FFFFFF" mask="url(#mask-6)"></path>
                </g>
            </g>
        </g>
    </g>
</svg>