<?xml version="1.0" encoding="UTF-8"?>
<svg width="38px" height="42px" viewBox="0 0 38 42" version="1.1" xmlns="http://www.w3.org/2000/svg" xmlns:xlink="http://www.w3.org/1999/xlink">
    <!-- Generator: Sketch 55.2 (78181) - https://sketchapp.com -->
    <title>编组 9</title>
    <desc>Created with Sketch.</desc>
    <g id="页面1" stroke="none" stroke-width="1" fill="none" fill-rule="evenodd">
        <g id="画板备份-4" transform="translate(-51.000000, -500.000000)" stroke="#FFFFFF" stroke-width="2">
            <g id="编组-9" transform="translate(52.000000, 501.000000)">
                <path d="M27.3359344,11.3409836 L6.03691803,11.3409836 L5.97134426,5.17770492 C5.97134426,3.87540984 7.01986885,2.82754098 8.32216393,2.82754098 L12.0474098,2.82754098 C12.904459,1.11147541 14.6834754,-3.73034936e-14 16.6526557,-3.73034936e-14 C18.6218361,-3.73034936e-14 20.4008525,1.11147541 21.2579016,2.82754098 L24.9838033,2.82754098 C26.2854426,2.82754098 27.3339672,3.87540984 27.3339672,5.17770492 L27.3359344,11.3409836 Z" id="Stroke-1"></path>
                <polyline id="Stroke-3" points="29.1481967 39.3442623 7.99360578e-13 39.3442623 7.99360578e-13 6.86754098 5.9895082 6.86754098"></polyline>
                <polyline id="Stroke-5" points="27.3340328 6.86734426 33.3051803 6.86734426 33.3051803 27.3034098"></polyline>
                <path d="M12.692,18.4541639 L12.692,31.2443279" id="Stroke-7"></path>
                <polyline id="Stroke-9" points="19.412 25.1748197 12.692 18.4541639 5.97134426 25.1748197"></polyline>
                <path d="M35.8880656,32.6043934 C35.8880656,36.3270164 32.8703607,39.3440656 29.1483934,39.3440656 C25.4257705,39.3440656 22.4074098,36.3270164 22.4074098,32.6043934 C22.4074098,28.8817705 25.4257705,25.8647213 29.1483934,25.8647213 C32.8703607,25.8647213 35.8880656,28.8817705 35.8880656,32.6043934 Z" id="Stroke-11"></path>
                <polyline id="Stroke-13" points="26.6424262 32.3994754 29.148 34.4486557 32.708 30.7601311"></polyline>
            </g>
        </g>
    </g>
</svg>