<?xml version="1.0" encoding="UTF-8"?>
<svg width="22px" height="22px" viewBox="0 0 22 22" version="1.1" xmlns="http://www.w3.org/2000/svg" xmlns:xlink="http://www.w3.org/1999/xlink">
    <!-- Generator: Sketch 55.2 (78181) - https://sketchapp.com -->
    <title>编组 2</title>
    <desc>Created with Sketch.</desc>
    <g id="页面1" stroke="none" stroke-width="1" fill="none" fill-rule="evenodd">
        <g id="组织结构" transform="translate(-1822.000000, -21.000000)" stroke="#3B516A" stroke-width="2">
            <g id="编组-2" transform="translate(1822.000000, 21.000000)">
                <g id="编组-5">
                    <circle id="Oval-4" cx="11" cy="11" r="10"></circle>
                    <ellipse id="Oval-4-Copy" cx="11" cy="9.93323317" rx="3.4" ry="3.43323317"></ellipse>
                    <path d="M5.80257635,16.5623094 C7.38139921,15.1018946 9.50110004,14.2581581 11.7691744,14.2581581 C13.8309067,14.2581581 15.7726426,14.95449 17.3000113,16.1862149 C17.1772453,16.31081 17.0501635,16.4316103 16.9189767,16.5483917 L17.5838842,17.2953174 L18.3043674,16.601845 C18.2871843,16.5839926 18.2699305,16.5662174 18.2526066,16.5485196 L18.7,16.1035113 L17.9106362,15.4895855 C17.7983362,15.6339769 17.6808532,15.7746116 17.5584321,15.9112297 C15.964527,14.5972861 13.9270719,13.8535989 11.7691744,13.8535989 C9.39699705,13.8535989 7.17440685,14.7531281 5.52933538,16.3088295 C5.39646585,16.1797133 5.26828096,16.0462025 5.14504539,15.90855 L4.4,16.5755638 L4.88053979,16.9919147 C4.86432097,17.0109413 4.84817892,17.030043 4.83211423,17.0492195 L5.59867501,17.6913912 L6.21124881,16.9009778 C6.07109951,16.7923615 5.93479945,16.6793995 5.80257635,16.5623094 Z" id="Combined-Shape" fill="#606266"></path>
                </g>
            </g>
        </g>
    </g>
</svg>